<svg xmlns="http://www.w3.org/2000/svg" viewBox="0 0 500 381.64"><defs><style>.cls-1{fill:#11131D;}</style></defs><g id="Capa_2" data-name="Capa 2"><g id="Capa_1-2" data-name="Capa 1"><path class="cls-1" d="M500,255.87V0H0V191.52c36.76-9.69,69.36-12.88,97.89-12a157,157,0,0,0-4.62,21.79c-27.41-.44-58.48,2.91-93.27,12.08v12.08c34.27-9,64.94-12.43,92.06-12.1-.2,3.29-.32,6.62-.32,10A158.25,158.25,0,0,0,364.11,333C441.62,341.67,500,289.85,500,289.85V277.77s-53.47,47.46-126,44a157.3,157.3,0,0,0,14.59-21.87C453.58,297.06,500,255.87,500,255.87ZM344.88,317.6a133.76,133.76,0,0,1-10.21,9.27h0A133.72,133.72,0,0,1,116.28,223.38c0-2.91.11-5.78.29-8.64.06-1,.13-2,.22-2.94,0-.06,0-.12,0-.18.08-.92.17-1.84.27-2.75,0-.2,0-.39.07-.59.08-.8.18-1.6.28-2.39,0-.37.11-.74.16-1.11.09-.66.18-1.31.28-2A133.2,133.2,0,0,1,128.74,167l.06-.12q2.19-4.69,4.72-9.17h0c.85-1.5,1.73-3,2.63-4.45l0,0q2.69-4.33,5.68-8.45c.05-.06.09-.13.14-.2,2-2.71,4.08-5.36,6.26-7.91l.09-.11c1.08-1.27,2.19-2.51,3.32-3.74l.17-.18q3.36-3.63,7-7l.34-.31q3.6-3.34,7.45-6.42l.29-.23c1.25-1,2.53-2,3.82-2.93l.43-.31q3.88-2.83,8-5.41l.58-.36q2-1.26,4.09-2.44l.28-.16q2-1.12,4-2.18l.51-.27q2.07-1.08,4.2-2.08l.7-.33q4.29-2,8.75-3.71l.83-.32c1.46-.54,2.92-1.07,4.4-1.56l.55-.18c1.39-.46,2.78-.89,4.18-1.31l.7-.2c1.49-.43,3-.83,4.5-1.21l.92-.23c1.52-.37,3.06-.72,4.61-1H223q2.34-.48,4.71-.87l1-.17c1.54-.24,3.1-.47,4.66-.66l.75-.09c1.44-.17,2.89-.32,4.34-.44l.8-.07c1.58-.13,3.17-.22,4.76-.29l1,0c1.64-.06,3.29-.1,4.94-.1h0A133.72,133.72,0,0,1,383.72,223.38c0,1.55,0,3.1-.09,4.64,0,.37,0,.74,0,1.11-.07,1.54-.15,3.07-.27,4.59a.41.41,0,0,1,0,.11c-.11,1.49-.26,3-.43,4.46q0,.53-.12,1.05c-.18,1.52-.37,3-.6,4.52l0,.14c-.22,1.47-.48,2.92-.75,4.36l-.18.95c-.3,1.49-.61,3-.95,4.45l0,.13c-.34,1.45-.71,2.88-1.09,4.3-.07.27-.14.54-.22.81-.41,1.48-.83,2.95-1.29,4.4l0,.07c-.45,1.44-.93,2.86-1.43,4.28-.08.21-.15.43-.23.65-.52,1.46-1.06,2.91-1.63,4.34v0c-.57,1.42-1.16,2.83-1.77,4.22l-.23.51q-1.89,4.27-4.07,8.38c-.06.13-.13.26-.2.38q-2.2,4.15-4.7,8.11l-.18.29q-1.26,2-2.6,4h0a134.71,134.71,0,0,1-15.67,19Z"/></g></g></svg>