<svg xmlns="http://www.w3.org/2000/svg" viewBox="0 0 59.05 59.03"><defs><style>.cls-1{fill:#fff;}</style></defs><g id="Capa_2" data-name="Capa 2"><g id="Layer_1" data-name="Layer 1"><path class="cls-1" d="M29.57,1.44a28.06,28.06,0,0,1,2.39,56,13.75,13.75,0,0,1-2.39.14A27.66,27.66,0,0,1,23.48,57,28.09,28.09,0,0,1,29.57,1.44m0-1.44A29.58,29.58,0,0,0,0,29.5,29.84,29.84,0,0,0,23.16,58.36a29.64,29.64,0,0,0,6.41.67,17.82,17.82,0,0,0,2.63-.13A29.51,29.51,0,0,0,29.57,0Z"/><path class="cls-1" d="M43,14.6H16a5.48,5.48,0,0,0-5.48,5.48V38.94A5.48,5.48,0,0,0,16,44.43H43a5.49,5.49,0,0,0,5.48-5.49V20.08A5.49,5.49,0,0,0,43,14.6Zm0,2.62a2.82,2.82,0,0,1,.65.08L32.29,30.23a3.69,3.69,0,0,1-5.52,0L15.38,17.3a2.75,2.75,0,0,1,.65-.08Zm2.86,21.72A2.87,2.87,0,0,1,43,41.81H16a2.87,2.87,0,0,1-2.86-2.87V20.08A2.77,2.77,0,0,1,13.38,19L24.8,32a6.31,6.31,0,0,0,9.45,0L45.67,19a2.78,2.78,0,0,1,.22,1.08Z"/></g></g></svg>