<svg xmlns="http://www.w3.org/2000/svg" viewBox="0 0 59.05 59.05"><defs><style>.cls-1{fill:#fff;}</style></defs><g id="Capa_2" data-name="Capa 2"><g id="Layer_1" data-name="Layer 1"><path class="cls-1" d="M29.53,1.44A28.09,28.09,0,1,1,1.45,29.53,28.08,28.08,0,0,1,29.53,1.44m0-1.44A29.53,29.53,0,1,0,59.05,29.53,29.57,29.57,0,0,0,29.53,0Z"/><path class="cls-1" d="M37.82,9H21.23a6.09,6.09,0,0,0-6.08,6.08V44a6.09,6.09,0,0,0,6.08,6.08H37.82A6.09,6.09,0,0,0,43.9,44V15.07A6.09,6.09,0,0,0,37.82,9Zm-16.59,2.8H37.82a3.28,3.28,0,0,1,3.27,3.28V38.24H18V15.07A3.28,3.28,0,0,1,21.23,11.79ZM37.82,47.26H21.23A3.28,3.28,0,0,1,18,44V41H41.09v3A3.28,3.28,0,0,1,37.82,47.26Z"/><path class="cls-1" d="M29.14,15.83A1.12,1.12,0,1,0,28,14.71,1.12,1.12,0,0,0,29.14,15.83Z"/><path class="cls-1" d="M29.14,42.79a1.12,1.12,0,1,0,1.12,1.12A1.12,1.12,0,0,0,29.14,42.79Z"/></g></g></svg>