<svg xmlns="http://www.w3.org/2000/svg" viewBox="0 0 59.06 59.06"><defs><style>.cls-1,.cls-2{fill:#fff;}.cls-2{fill-rule:evenodd;}</style></defs><g id="Capa_2" data-name="Capa 2"><g id="Layer_1" data-name="Layer 1"><path class="cls-1" d="M29.52,1.44A28.09,28.09,0,1,1,1.45,29.53,28.1,28.1,0,0,1,29.52,1.44m0-1.44A29.53,29.53,0,1,0,59.06,29.53,29.57,29.57,0,0,0,29.52,0Z"/><path class="cls-2" d="M46.21,25.35A17.09,17.09,0,0,0,29.55,12.17a23.53,23.53,0,0,0-3.26.33,17.06,17.06,0,0,0-11.7,24.88,1.09,1.09,0,0,1,.16.85c-.8,2.62-1.53,5.3-2.24,7.94-.12.46-.12.46.32.34,2.77-.76,5.51-1.46,8.27-2.14a.74.74,0,0,1,.62,0,17.07,17.07,0,0,0,24.49-19ZM32,43.24a7.8,7.8,0,0,1-2,.17,14.92,14.92,0,0,1-7.7-2,.88.88,0,0,0-.87-.13c-1.54.36-3.05.78-4.58,1.17-.32.09-.35,0-.28-.27.41-1.42.79-2.85,1.23-4.32a1,1,0,0,0-.17-1A14.12,14.12,0,0,1,18.11,21c3.61-4.81,8.56-6.82,14.44-5.55A13.37,13.37,0,0,1,43.4,26.17,14.07,14.07,0,0,1,32,43.24Z"/><path class="cls-2" d="M34,37.38a4.62,4.62,0,0,1-1.77-.22A17.39,17.39,0,0,1,23,30.36a9.6,9.6,0,0,1-2-4,4.63,4.63,0,0,1,1.54-4.55,2.58,2.58,0,0,1,2.28-.34,1.74,1.74,0,0,1,.38.44c.48,1.22,1,2.34,1.49,3.5a.93.93,0,0,1-.07.73,6.8,6.8,0,0,1-1.05,1.41.62.62,0,0,0-.1.93,11.43,11.43,0,0,0,5.83,5,.68.68,0,0,0,.88-.19c.43-.51.87-1.07,1.27-1.61a.71.71,0,0,1,1-.22c.84.36,1.66.76,2.46,1.12l.58.29c.84.42.84.47.74,1.37-.11,1.78-1.48,2.69-3,3.13A2.94,2.94,0,0,1,34,37.38Z"/></g></g></svg>